<?xml version="1.0" encoding="utf-8"?>
<!-- Generator: Adobe Illustrator 23.0.1, SVG Export Plug-In . SVG Version: 6.00 Build 0)  -->
<svg version="1.1" id="Layer_1" xmlns="http://www.w3.org/2000/svg" xmlns:xlink="http://www.w3.org/1999/xlink" x="0px" y="0px"
	 viewBox="0 0 185.1 59.4" style="enable-background:new 0 0 185.1 59.4;" xml:space="preserve">
<style type="text/css">
	.st0{fill:#06255B;}
	.st1{fill:#989BB8;}
</style>
<g id="Layer_2">
</g>
<g>
	<g>
		<g>
			<g>
				<path class="st0" d="M9.3,49.2L5,58.6H0l17.9-39l17.9,39h-5l-4.3-9.4H9.3z M17.9,29.8l-6.6,15.1h13.3L17.9,29.8z"/>
				<path class="st0" d="M99.5,21.2h20.1v4.3h-15.4v10.9h14.2v4.3h-14.2v13.7h15.4v4.3H99.5V21.2z"/>
				<path class="st0" d="M61.6,27.1c-1.9-1.2-4.8-2.5-8.3-2.5c-8.4,0-14.8,7-14.8,15.3C38.5,48,44.8,55,53.2,55
					c3.7,0,6.4-1.3,8.4-2.7l2.5,3.7c-3.7,2.4-7.6,3.2-10.8,3.2c-10.7,0-19.5-8.5-19.5-19.3c0-11.1,8.9-19.7,19.9-19.7
					c3.3,0,6.8,0.8,10.4,3.1L61.6,27.1z"/>
				<path class="st0" d="M92,27.1c-1.9-1.2-4.8-2.5-8.3-2.5c-8.4,0-14.8,7-14.8,15.3C68.9,48,75.2,55,83.5,55c3.7,0,6.4-1.3,8.4-2.7
					l2.5,3.7c-3.7,2.4-7.6,3.2-10.8,3.2C73,59.3,64.2,50.8,64.2,40c0-11.1,8.9-19.7,19.9-19.7c3.3,0,6.8,0.8,10.4,3.1L92,27.1z"/>
				<path class="st0" d="M135.9,36.5l-2.7-1c-2.3-0.9-5.2-2.4-5.2-5.4c0-3.3,3.3-5.7,6.3-5.7c2.8,0,4.6,1.2,6,3.5l3.7-2.2
					c-2-3.6-5.5-5.7-9.6-5.7c-5.7,0-11,4-11,10.1c0,5.2,3.9,7.6,8.1,9.5l2.6,1.1c3.2,1.3,6.4,3.1,6.4,7.1c0,3.9-2.9,7.3-6.9,7.3
					c-3.4,0-6.3-2.2-7.1-5.4l-4.4,1.6c1.6,4.8,5.8,8.2,11,8.2c6.7,0,12-4.9,12-11.7C145.2,41.5,141.3,38.5,135.9,36.5z"/>
				<path class="st0" d="M162.6,36.5l-2.7-1c-2.3-0.9-5.2-2.4-5.2-5.4c0-3.3,3.3-5.7,6.3-5.7c2.8,0,4.6,1.2,6,3.5l3.7-2.2
					c-2-3.6-5.5-5.7-9.6-5.7c-5.7,0-11,4-11,10.1c0,5.2,3.9,7.6,8.1,9.5l2.6,1.1c3.2,1.3,6.5,3.1,6.5,7.1c0,3.9-2.9,7.3-6.9,7.3
					c-3.4,0-6.3-2.2-7.1-5.3l-4.4,1.6c1.6,4.8,5.8,8.1,11,8.1c6.7,0,12-4.9,12-11.7C171.8,41.5,167.9,38.5,162.6,36.5z"/>
				<path class="st1" d="M93.7,39.9c0,5.4-4.4,9.8-9.8,9.8c-5.4,0-9.8-4.4-9.8-9.8c0-5.4,4.4-9.8,9.8-9.8
					C89.3,30.1,93.7,34.5,93.7,39.9z"/>
				<g>
					<path class="st1" d="M102,12.3c0,3.5-2.8,6.3-6.3,6.3c-3.5,0-6.3-2.8-6.3-6.3c0-3.5,2.8-6.3,6.3-6.3C99.1,6,102,8.8,102,12.3z"
						/>
					<path class="st1" d="M110.7,5.3c0,2.2-1.8,4.1-4,4.1c-2.2,0-4.1-1.8-4.1-4.1c0-2.2,1.8-4.1,4.1-4.1
						C108.8,1.3,110.7,3.1,110.7,5.3z"/>
					<path class="st1" d="M118.8,3c0,1.7-1.3,3-3,3c-1.7,0-3-1.3-3-3c0-1.7,1.4-3,3-3C117.5,0,118.8,1.3,118.8,3z"/>
				</g>
			</g>
		</g>
		<g>
			<path class="st0" d="M176.8,22.4h-2.2V28h-0.9v-5.6h-2.2v-0.9h5.3V22.4z M185.1,28h-0.9v-5.6h0l-2.3,5.6h-0.6l-2.2-5.6h0V28h-0.9
				v-6.6h1.6l1.9,4.8l2-4.8h1.6V28z"/>
		</g>
	</g>
</g>
</svg>
